<svg width="300" height="300" viewBox="0 0 300 300" fill="none" xmlns="http://www.w3.org/2000/svg">
<g clip-path="url(#clip0_4176_8603)">
<path d="M179.826 153.524C179.826 153.524 174.357 168.632 176.413 169.288C179.438 170.256 180.42 163.977 180.42 163.977C180.42 163.977 176.781 177.029 183.119 177.065C189.564 177.1 190.97 152.274 190.97 152.274L179.819 153.531L179.826 153.524Z" fill="#C87F49"/>
<path d="M214.387 118.528C214.366 118.67 212.585 132.562 205.06 132.562C202.177 132.562 200.099 129.165 198.722 124.786C196.623 118.112 195.535 110.533 198.997 103.732C200.601 100.589 202.106 98.2934 200.707 97.0504C199.675 96.1322 197.909 97.3611 196.976 98.4488C194.574 101.253 193.387 101.161 191.938 98.5265C191.938 98.5265 189.634 89.8675 182.801 92.7562C178.166 94.7196 181.628 110.258 181.628 110.258C183.494 124.362 187.218 146.688 205.067 146.688C220.973 146.688 227.502 130.161 228.859 120.393L214.394 118.535L214.387 118.528Z" fill="#FFD0BC"/>
<path d="M238.716 221.977L238.639 232.31L248.475 236.922L257.604 233.009L256.516 229.746C255.435 228.955 255.76 225.536 255.76 224.195V222.521L238.716 221.977Z" fill="#FFD0BC"/>
<path d="M255.894 228.114C255.894 228.114 257.06 233.164 260.699 235.89C264.126 238.454 266.408 238.8 265.787 242.741C259.243 242.741 238.066 242.226 238.066 242.226C238.066 242.226 238.25 235.481 238.511 230.692C238.56 229.809 239.105 229.605 239.719 230.247C242.072 232.698 247.542 233.955 250.919 232.86C254.028 231.85 255.894 228.121 255.894 228.121V228.114Z" fill="#FF8A00"/>
<path d="M238.038 242.077V245.34C238.038 245.715 238.342 246.018 238.716 246.018L265.222 246.061C265.596 246.061 265.9 245.757 265.9 245.383V242.219L238.038 242.084V242.077Z" fill="#CADEFF"/>
<path d="M229.636 221.97L229.954 232.451L220.655 236.922L207.851 230.367L211.646 227.592C212.727 226.801 213.37 225.536 213.37 224.194V222.521L229.629 221.97H229.636Z" fill="#FFD0BC"/>
<path d="M190.355 159.718L175.608 158.058C178.653 131.1 174.725 118.118 174.682 117.991L188.772 113.344C188.977 113.966 193.825 128.953 190.348 159.718H190.355Z" fill="#D2DEFF"/>
<path d="M93.4704 241.244L92.8344 220.423L110.323 219.681L110.443 227.316C110.302 230.325 111.864 233.037 114.408 234.661C116.33 235.883 116.563 236.039 119.128 236.738C124.364 238.164 123.367 244.125 122.18 245.439C119.806 246.216 101.18 245.679 99.1516 245.679C93.0535 245.679 93.4774 241.244 93.4774 241.244H93.4704Z" fill="#804220"/>
<path d="M93.1242 234.972L93.3221 243.688C93.2797 244.726 94.1841 245.785 95.2229 245.785L127.826 245.891C128.992 245.891 129.868 244.825 129.628 243.681C129.155 241.378 127.36 237.741 118.188 236.498C113.835 240.849 110.359 241.887 106.84 240.446C103.808 239.203 97.5547 232.868 93.1242 234.965V234.972Z" fill="#FF3008"/>
<path d="M126.498 95.4823C126.498 95.4823 127.692 86.0394 127.311 81.8723C126.894 77.3168 123.219 75.9537 121.58 75.5723C121.099 75.4593 120.746 75.0638 120.682 74.5765C120.527 73.3334 120.244 72.4718 120.195 71.1651C120.11 68.9545 119.63 66.5602 117.891 66.6167C116.167 66.6661 115.877 69.6113 115.892 71.8432C115.899 73.517 115.581 77.1968 115.559 80.3256C115.559 80.6716 115.072 80.7635 114.952 80.4386C114.57 79.4357 114.118 78.2703 113.934 77.903C113.009 76.0173 112.005 76.0667 111.405 76.2715C110.429 76.6035 110.436 78.4116 110.889 81.7028C111.101 83.2284 112.917 92.6784 112.917 92.6784L126.498 95.5035V95.4823Z" fill="#804220"/>
<path d="M216.253 133.558C216.253 133.558 209.808 151.483 208.897 174.126C208.176 191.946 208.777 205.4 209.391 222.478C209.405 222.803 209.674 223.064 209.999 223.064C219.383 223.064 225.319 222.965 228.689 223.001C229.876 223.015 230.837 222.033 230.809 220.847L229.869 184.918C229.707 178.569 230.371 172.226 231.855 166.053L232.498 164.168C232.964 163.158 233.395 163.567 233.431 164.478L236.179 220.967C236.25 222.443 237.472 223.601 238.956 223.587L256.565 223.46C256.968 223.46 257.286 223.128 257.265 222.725C256.89 214.695 253.541 142.824 253.103 134.024C236.78 134.024 216.26 133.558 216.26 133.558H216.253Z" fill="#9777C9"/>
<path d="M237.239 100.928C236.61 100.928 236.003 100.963 235.416 101.027C229.078 100.278 217.595 105.879 213.914 120.668C213.878 120.824 213.991 120.979 214.147 120.979L217.305 121.078C218.365 121.113 219.121 122.123 218.846 123.147C217.814 126.947 216.903 130.846 215.935 134.497C215.935 134.497 263.349 135.119 262.882 133.72C262.416 132.322 257.802 101.154 237.232 100.935L237.239 100.928Z" fill="#FF3008"/>
<path d="M241.67 73.3051C247.012 74.8871 249.4 79.5698 249.4 87.2964C249.4 95.0231 242.652 101.648 236.448 101.076C231.353 100.603 229.551 98.1519 229.551 94.3945C229.551 90.6371 230.505 87.5578 230.025 87.1128C229.375 86.5125 227.064 86.1381 227.333 84.2383C227.601 82.3384 230.159 82.6279 230.604 80.6715C231.021 78.8211 230.972 76.2997 231.763 75.4098C233.438 73.5311 236.038 71.6382 241.677 73.3051H241.67Z" fill="#FFD0BC"/>
<path d="M237.699 78.9413C237.699 78.9413 234.25 85.1 235.713 89.2812C237.176 93.4624 243.337 98.5758 252.318 98.1591C261.3 97.7424 266.628 91.7885 267.044 85.1071C267.461 78.4257 263.702 71.4265 256.806 68.9263C249.909 66.419 239.253 65.6915 232.364 66.0023C225.771 66.2989 223.064 67.881 223.905 72.0551C224.739 76.2292 230.484 77.9031 237.691 78.9484L237.699 78.9413Z" fill="#FF8A00"/>
<path d="M78.045 241.244L77.2677 220.423L59.7789 219.681L60.3654 227.662C60.5067 230.671 59.8425 232.966 57.2774 234.541C55.2141 235.805 54.9668 236.039 52.4018 236.738C47.1657 238.164 48.162 244.125 49.3492 245.439C51.7234 246.216 70.3499 245.679 72.3779 245.679C78.476 245.679 78.0521 241.244 78.0521 241.244H78.045Z" fill="#804220"/>
<path d="M102.96 133.162C113.666 162.162 110.38 222.443 110.38 222.443C110.38 222.443 100.586 222.994 93.7884 223.163C91.93 223.206 90.3331 221.864 90.0433 220.028L82.2281 169.945C81.8112 168.914 81.359 169.303 81.2813 170.207L81.9102 217.421C81.9455 220.013 82.3907 222.987 79.8044 222.853L60.0049 222.909L52.7056 164.126C51.8435 150.078 52.4512 143.262 55.4048 134.158C55.5744 133.621 55.6875 133.226 55.7087 133.007C72.0104 133.812 92.2551 104.163 102.96 133.162Z" fill="#404040"/>
<path d="M54.8747 136.821C56.6342 123.804 58.5279 101.592 79.1259 101.238C97.3143 100.928 97.5687 120.951 102.911 134.49" fill="#FF3008"/>
<path d="M129.126 90.263C129.126 89.3943 128.42 88.688 127.551 88.7021L112.167 88.9281C112.167 88.9987 112.245 96.0827 110.867 103.329C109.171 112.271 106.514 114.933 105.723 115.159C99.8369 116.84 95.4347 109.883 95.2439 109.587L95.2863 109.65L95.258 109.664C92.2973 105.815 88.9408 103.018 85.1957 102.171L94.9895 150.805L109.843 150.523C110.606 150.509 111.164 149.802 111.001 149.054C110.429 146.511 109.079 140.882 106.967 134.37C106.613 133.282 107.292 132.138 108.415 131.919C109.058 131.792 109.715 131.637 110.38 131.446C127.515 126.552 129.07 98.9926 129.126 90.2559V90.263Z" fill="#9777C9"/>
<path d="M137.429 131.227L128.54 220.607C128.392 221.836 129.338 222.93 130.575 222.951L148.884 223.34C149.901 223.361 150.784 222.648 150.975 221.652L160.423 166.216C160.437 165.877 160.931 165.856 160.981 166.188L163.532 220.621C163.553 221.567 164.253 222.415 165.199 222.358C171.029 222.012 185.706 221.581 185.932 222.358C186.398 223.99 183.289 131.22 183.289 131.22H137.429V131.227Z" fill="#6C87F8"/>
<path d="M132.532 114.446L141.626 118.874L139.994 129.363C139.627 133.028 139.118 136.333 143.492 136.355L183.444 135.889L183.133 118.486C183.133 118.486 189.118 118.33 189.896 118.175C189.507 110.717 179.176 89.6061 163.701 89.4295C150.254 89.2741 136.73 100.928 132.532 114.446Z" fill="#FF8A00"/>
<path d="M169.983 68.9967C170.202 70.2468 170.188 71.4898 170.697 72.6269C171.206 73.7641 173.262 74.5057 173.961 75.0354C176.611 77.0271 174.611 79.944 171.799 80.283C169.503 80.5585 168.217 81.0175 167.87 82.0134C166.655 85.5448 161.525 92.0708 153.752 83.6802C148.558 78.0724 151.526 73.192 151.265 67.8313C151.123 64.9638 152.855 61.2276 155.617 59.13C158.38 57.0323 160.267 56.213 164.387 58.4449C168.464 60.6555 168.902 62.7532 169.983 68.9967Z" fill="#C87F49"/>
<path d="M148.389 79.372C148.643 85.8627 151.42 91.4564 157.992 93.2433C162.288 94.4157 170.188 94.0202 171.319 88.4971C172.032 85.001 171.184 83.2706 170.499 80.6927C170.386 80.269 169.439 78.6375 167.616 78.8352C165.39 79.0824 164.846 81.5473 161.751 81.9005C158.303 82.303 157.109 79.4567 156.995 76.7234C156.868 73.6935 157.766 71.0167 158.098 69.3852C158.826 65.8538 155.342 63.961 153.307 64.1799C148.615 64.6814 148.248 75.89 148.382 79.3649L148.389 79.372Z" fill="#404040"/>
<path d="M150.254 66.553C150.198 66.7649 158.331 66.3411 161.963 66.3411C166.443 66.3411 175.325 66.0233 176.746 65.9668C179.643 65.8608 180.787 65.543 181.014 64.3212C181.233 63.1487 180.003 62.4071 178.526 62.4566C177.049 62.506 175.212 62.3365 173.742 62.2941C171.863 62.2376 171.163 61.1782 170.527 60.0623C169.884 58.9464 168.973 55.8387 166.429 54.6875C163.949 53.5716 160.628 53.5998 157.427 55.4291C153.173 57.8587 151.265 62.5413 150.254 66.5459V66.553Z" fill="#FF3008"/>
<path d="M66.0747 104.657C66.0747 104.657 65.142 103.025 61.6442 103.491L58.4997 105.038C55.3129 106.423 27.359 119.178 27.7406 140.861C28.0727 159.626 42.9541 166.244 53.2425 166.428L54.041 153.072L65.9192 152.832L66.0747 104.664V104.657ZM44.7065 140.557C44.65 137.223 46.9041 133.798 50.0627 130.704C50.5573 130.217 51.3841 130.627 51.2851 131.319C50.5573 136.305 50.2252 142.196 50.4796 149.159C50.0203 148.997 49.5469 148.799 49.0734 148.559C47.0878 147.542 44.7913 145.713 44.6994 140.564L44.7065 140.557Z" fill="#9777C9"/>
<path d="M50.946 148.905C50.946 148.905 52.0625 153.086 55.8853 153.581C60.1533 154.131 63.4744 157.133 63.2765 159.902C62.7112 167.671 52.55 166.661 52.55 166.661C52.55 166.661 44.0918 158.503 50.9531 148.905H50.946Z" fill="#804220"/>
<path d="M83.0971 75.9469C84.1288 79.7325 84.2277 84.5211 86.2204 86.0255C87.9304 87.3179 89.4214 87.3462 89.6687 88.8435C90.0149 90.9129 86.8422 91.824 86.5525 93.1024C86.3334 94.0488 86.2345 95.0305 85.2947 96.7468C82.977 100.984 75.6917 102.863 71.7064 100.631C66.117 97.4954 59.1992 86.4351 67.7705 78.0798C71.7135 74.2377 82.0654 72.1683 83.09 75.9539L83.0971 75.9469Z" fill="#804220"/>
<path d="M82.7651 80.488C81.1399 80.6433 79.8892 82.0065 79.4158 83.8852C79.2744 84.4572 78.8151 84.9022 78.2286 84.9799L72.8866 85.5661L73.1551 87.7626L78.3134 87.2117C79.0766 87.1058 79.4299 87.6214 79.7125 88.3347C80.4898 90.3052 82.0656 91.5624 83.8039 91.4C86.0721 91.181 87.6196 88.6172 87.3299 85.559C87.0402 82.5009 85.0263 80.269 82.7581 80.488H82.7651ZM83.606 89.2953C82.6874 89.38 81.5356 88.1087 81.3519 86.1311C81.1611 84.1606 82.0515 82.6845 82.9701 82.5997C83.8887 82.515 85.0405 83.7863 85.2242 85.7639C85.4079 87.7414 84.5246 89.2105 83.606 89.2953Z" fill="#A373D4"/>
<path d="M86.1074 77.8888C81.9525 79.6474 79.4793 78.9059 73.9536 80.4032C73.1409 80.6221 71.0352 82.1406 72.8654 84.9728C75.1407 88.4901 70.9646 90.058 70.3639 92.6924C69.6997 95.6023 73.5367 97.7988 75.4799 99.1195C79.6348 101.938 78.0308 106.437 73.9394 108.944C65.9193 113.845 57.991 113.937 50.4585 110.745C44.4875 108.209 45.18 102.425 47.3705 99.6069C49.1017 97.375 52.3522 96.4074 51.3912 92.6571C50.8047 90.3546 51.1863 87.6849 52.5006 86.3924C55.3341 83.5955 60.2805 85.6579 60.0967 81.3496C59.8989 76.7235 62.1177 73.976 66.4846 73.5381C70.8515 73.1002 71.9538 74.76 76.2854 73.0367C78.9635 71.9702 83.3375 70.939 86.0509 72.3092C88.3827 73.4816 88.4887 76.893 86.1004 77.9029L86.1074 77.8888Z" fill="#404040"/>
<path d="M77.7906 235.036L78.2357 243.78C78.2781 244.818 77.4514 245.68 76.4127 245.687L43.682 245.899C42.5161 245.899 41.6399 244.832 41.8801 243.688C42.3536 241.385 44.1484 237.748 53.3203 236.505C57.6731 240.856 61.1497 241.894 64.6686 240.453C67.7 239.21 73.353 232.938 77.7835 235.036H77.7906Z" fill="#FF3008"/>
<path d="M159.992 99.9953C159.992 99.9953 155.717 89.7402 157.193 88.9845C159.702 87.699 159.758 91.5483 163.376 92.1345C169.489 93.1233 171.192 85.898 171.481 84.7327C172.124 85.0858 176.505 89.0622 175.445 94.2886C174.59 98.5051 172.937 103.202 172.937 103.202L159.992 99.9953Z" fill="#C87F49"/>
<path d="M166.132 222.288C166.132 222.909 165.899 237.197 166.379 243.01C166.492 244.387 167.644 245.447 169.022 245.447L204.417 245.595C204.417 245.595 205.816 239.38 200.997 237.36C196.177 235.34 195.188 236.83 192.461 235.029C185.564 230.466 185.931 216.016 185.931 216.016C185.931 216.016 183.077 215.352 180.745 217.534C178.908 219.251 178.936 221.906 178.936 221.906L166.132 222.295V222.288Z" fill="#404040"/>
<path d="M148.523 223.064C148.523 223.658 147.569 236.809 147.131 242.883C147.004 244.592 145.591 245.913 143.874 245.92L110.493 246.061C110.493 246.061 109.094 239.846 113.913 237.826C118.732 235.806 119.721 237.296 122.449 235.495C129.345 230.932 128.978 216.482 128.978 216.482C128.978 216.482 131.833 215.818 134.165 218C136.002 219.717 136.341 222.45 136.341 222.45L148.523 223.072V223.064Z" fill="#404040"/>
<path d="M211.412 227.684C211.412 227.684 202.657 233.475 198.778 235.883C195.139 238.144 193.068 238.793 193.69 242.734C200.234 242.734 231.07 242.219 231.07 242.219C231.07 242.219 230.887 235.65 230.639 230.876C230.562 229.365 228.272 229.16 227.318 230.339C225.184 232.967 218.747 233.864 215.405 232.232C212.515 230.819 211.419 227.684 211.419 227.684H211.412Z" fill="#FF8A00"/>
<path d="M231.099 242.077V245.34C231.099 245.715 230.795 246.018 230.42 246.018L194.256 246.061C193.881 246.061 193.577 245.757 193.577 245.383V242.219L231.099 242.084V242.077Z" fill="#CADEFF"/>
<path d="M145.781 140.72C140.955 140.72 136.821 138.784 134.186 135.317C128.625 128.014 131.833 116.6 132.532 114.39L146.686 118.853L139.613 116.621L146.7 118.825C146.205 120.421 146.163 121.558 145.993 122.681C145.682 124.701 147.279 124.8 148.092 124.157C150.346 122.371 156.254 111.028 159.674 99.2188L171.509 101.733C173.509 102.016 173.658 103.358 173.318 104.671C172.492 107.857 170.796 113.768 168.231 119.736C162.38 133.353 155.059 140.409 146.46 140.713C146.234 140.72 146.015 140.727 145.796 140.727L145.781 140.72Z" fill="#D2DEFF"/>
<path d="M262.593 113.775C262.55 113.838 262.494 113.902 262.423 113.98L252.53 125.068C256.233 128.239 257.957 131.121 257.759 134.645C257.406 141.051 252.629 145.367 249.054 145.564C247.188 145.663 245.556 145.487 244.312 144.618C244.312 144.618 244.312 146.793 245.712 152.232C247.111 157.67 249.676 161.378 249.676 161.378C251.421 161.42 271.171 155.82 272.217 136.983C272.662 128.96 269.616 120.492 262.593 113.782V113.775Z" fill="#FFD0BC"/>
<path d="M211.328 231.73C211.059 231.575 209.406 230.127 208.134 229.372C207.533 229.018 206.989 229.16 206.699 229.605C206.282 230.233 207.045 230.869 207.469 231.222C208.211 231.836 210.783 233.835 211.561 234.273C212.013 234.527 212.465 234.838 212.974 234.315C213.398 233.885 212.974 233.277 212.72 232.995C211.992 232.197 211.328 231.73 211.328 231.73Z" fill="white"/>
<path d="M208.289 233.913C207.999 233.758 206.607 232.613 205.251 231.858C204.615 231.505 204.035 231.653 203.71 232.112C203.258 232.762 203.979 233.496 204.431 233.849C205.215 234.471 207.547 236.138 208.374 236.576C208.854 236.83 209.497 237.112 210.013 236.533C210.395 236.095 210.027 235.467 209.759 235.184C208.996 234.379 208.289 233.906 208.289 233.906V233.913Z" fill="white"/>
<path d="M253.887 233.468C253.59 233.56 251.4 233.736 249.973 234.132C249.301 234.323 249.026 234.803 249.146 235.325C249.315 236.06 250.298 235.954 250.842 235.898C251.803 235.792 255.018 235.325 255.88 235.071C256.375 234.923 256.912 234.81 256.89 234.075C256.876 233.475 256.134 233.355 255.76 233.348C254.679 233.32 253.887 233.475 253.887 233.475V233.468Z" fill="white"/>
<path d="M255.307 236.724C254.997 236.809 253.188 236.936 251.69 237.324C250.983 237.508 250.665 238.016 250.75 238.567C250.87 239.351 251.902 239.386 252.467 239.33C253.463 239.238 256.304 238.843 257.208 238.595C257.731 238.454 258.395 238.214 258.367 237.437C258.346 236.858 257.639 236.653 257.251 236.632C256.141 236.575 255.307 236.717 255.307 236.717V236.724Z" fill="white"/>
<path d="M252.163 125.478L262.423 113.98C262.833 113.542 262.833 113.394 262.296 112.956C259.067 110.321 243.224 98.3005 235.685 101.705C228.972 104.735 238.172 120.817 252.163 125.478Z" fill="#FF3008"/>
</g>
<defs>
<clipPath id="clip0_4176_8603">
<rect width="244.519" height="192.122" fill="white" transform="translate(27.7406 53.939)"/>
</clipPath>
</defs>
</svg>
